<?xml version="1.0" encoding="UTF-8"?>
<svg width="375px" height="103px" viewBox="0 0 375 103" version="1.1" xmlns="http://www.w3.org/2000/svg" xmlns:xlink="http://www.w3.org/1999/xlink">
    <title>Group Copy</title>
    <g id="Page-1" stroke="none" stroke-width="1" fill="none" fill-rule="evenodd">
        <g id="Artboard" transform="translate(-486.000000, -120.000000)" fill-rule="nonzero">
            <g id="Group-Copy" transform="translate(486.000000, 120.000000)">
                <path d="M41.648,101.062 C44.748,101.01503 45.9620955,101.003644 47.0694417,101.000883 L48.0135611,101.000002 C48.0610432,101 48.1091515,101 48.158,101 L52.498,100.938 L59.008,100.938 C59.256,100.938 59.256,99.016 59.008,99.016 C54.0073443,99.0769836 53.0256082,98.9580156 52.994764,93.349048 L52.994,65.474 C52.994,59.584 53.924,59.46 59.008,59.522 C59.256,59.522 59.256,57.6 59.008,57.6 L49.274,57.6 L30.922,83.02 L12.88,57.6 L1.41,57.6 C1.162,57.6 1.162,59.584 1.41,59.584 C6.742,59.584 7.734,59.708 7.734,65.846 L7.73476195,71.5121001 C7.73730178,78.2412308 7.74830769,86.1104615 7.796,92.072 C7.796,98.334 6.37,99.264 0.914,99.264 C0.666,99.264 0.666,101 0.914,101 L18.026,101 C18.274,101 18.274,99.078 18.026,99.078 C11.64,99.078 10.028,98.086 10.028,91.08 L10.028,62.808 L28.752,89.034 C29,89.344 29.124,89.344 29.372,89.158 C30.302,87.67 31.356,86.244 32.348,84.818 L47.6,63.924 L47.6,93.126 C47.6,98.8228852 46.787985,99.1256705 42.0784878,99.1394013 L41.586,99.14 L41.586,99.14 C41.338,99.14 41.4,101.062 41.648,101.062 Z M80.584,101.62 C88.458,101.62 92.984,95.792 95.712,90.584 C95.774,90.398 94.844,89.654 94.72,89.902 C92.364,93.25 89.264,98.148 82.568,98.148 C73.826,98.148 69.982,90.46 69.982,84.26 L69.982,83.082 L94.1,83.082 C94.286,82.214 94.41,80.788 94.41,79.796 C94.41,73.348 89.264,67.52 81.638,67.52 C71.656,67.52 64.65,74.898 64.65,85.004 C64.65,94.428 71.222,101.62 80.584,101.62 Z M85.978,81.036 L70.168,81.036 C71.16,73.72 75.624,69.442 81.39,69.442 C86.536,69.442 89.326,73.41 89.326,77.998 C89.326,80.292 88.272,81.036 85.978,81.036 Z M113.134,101.682 C119.954,101.682 124.17,97.714 126.836,95.234 L127.208,95.234 C127.146,97.156 127.022,99.016 127.022,100.938 C127.022,101.186 127.766,101.558 128.076,101.558 C130.618,101.124 133.16,100.628 135.702,100.256 C135.888,100.194 135.95,98.892 135.702,98.768 C131.987536,97.6110357 131.622179,97.0521263 131.610315,91.3349938 L131.61,54.686 C131.61,54.252 131.3,54.19 130.68,54.314 C128.014,54.81 125.286,55.244 122.62,55.678 C122.434,55.74 122.434,57.228 122.744,57.228 C126.402,57.042 126.774,59.522 126.774,63.242 L126.774,70.806 C124.79,69.38 121.256,67.52 117.288,67.52 C106.314,67.52 99.804,75.58 99.804,85.438 C99.804,97.342 107.182,101.682 113.134,101.682 Z M115.18,99.078 C108.918,99.078 105.322,92.754 105.322,84.88 C105.322,74.898 110.406,69.442 116.73,69.442 C121.442,69.442 124.17,71.736 126.774,75.146 L126.774,93.002 C124.604,95.172 121.132,99.078 115.18,99.078 Z M148.226,62.188 C150.334,62.188 151.636,60.824 151.636,59.026 C151.636,57.166 150.148,55.864 148.226,55.864 C146.242,55.864 144.878,57.29 144.878,59.026 C144.878,60.886 146.366,62.188 148.226,62.188 Z M155.852,101 C156.1,101 156.1,99.14 155.852,99.14 C151.311345,99.14 151.031085,98.4491253 151.016707,94.6262852 L151.016,67.954 C151.016,67.768 150.644,67.52 150.458,67.52 C147.73,68.016 144.754,68.574 142.212,68.946 C141.964,69.07 142.026,70.496 142.212,70.558 C145.312,71.55 146.118,71.922 146.118,77.316 L146.118,94.18 C146.118,98.396 145.994,99.14 141.282,99.14 C141.034,99.14 141.034,101 141.282,101 L155.852,101 Z M171.786,101.682 C175.01,101.682 177.366,99.512 179.97,95.42 C180.094,95.172 179.35,94.614 179.164,94.862 C177.242,97.714 175.692,98.768 173.832,98.768 C171.476,98.768 169.802,97.032 169.802,92.754 L169.802,70.124 L177.614,70.124 L178.482,68.264 L169.864,68.264 L169.864,57.414 C169.864,57.166 169.058,57.042 168.934,57.414 C167.818,63.242 165.338,66.776 160.192,68.512 L159.944,70.124 L164.966,70.124 L164.966,93.064 C164.966,99.264 167.57,101.682 171.786,101.682 Z M212.272,101.682 C214.876,101.682 216.674,99.946 218.286,97.714 C218.41,97.466 217.666,96.846 217.48,97.156 C216.364,98.582 215.434,99.698 214.38,99.698 C212.954,99.698 212.396,98.458 212.396,96.722 L212.396,78.308 C212.396,69.256 206.816,67.52 201.05,67.52 C194.912,67.52 186.976,72.604 186.976,76.448 C186.976,78.122 188.216,79.3 189.642,79.3 C191.874,79.3 193.548,76.82 192.432,72.79 C194.478,70.868 198.012,69.442 200.182,69.442 C204.212,69.442 207.56,71.674 207.56,77.75 L207.56,80.912 C191.192,83.702 185.426,87.918 185.426,93.746 C185.426,98.582 188.96,101.62 194.168,101.62 C200.864,101.62 205.762,95.668 207.498,91.948 L207.622,91.948 L207.622,96.474 C207.622,98.21 208.18,101.682 212.272,101.682 Z M196.524,98.334 C193.114,98.334 190.138,95.916 190.138,92.196 C190.138,89.096 193.052,85.19 207.56,82.958 L207.56,89.158 C205.576,93.746 201.546,98.334 196.524,98.334 Z M233.166,101.682 C236.39,101.682 238.746,99.512 241.35,95.42 C241.474,95.172 240.73,94.614 240.544,94.862 C238.622,97.714 237.072,98.768 235.212,98.768 C232.856,98.768 231.182,97.032 231.182,92.754 L231.182,70.124 L238.994,70.124 L239.862,68.264 L231.244,68.264 L231.244,57.414 C231.244,57.166 230.438,57.042 230.314,57.414 C229.198,63.242 226.718,66.776 221.572,68.512 L221.324,70.124 L226.346,70.124 L226.346,93.064 C226.346,99.264 228.95,101.682 233.166,101.682 Z M252.758,62.188 C254.866,62.188 256.168,60.824 256.168,59.026 C256.168,57.166 254.68,55.864 252.758,55.864 C250.774,55.864 249.41,57.29 249.41,59.026 C249.41,60.886 250.898,62.188 252.758,62.188 Z M260.384,101 C260.632,101 260.632,99.14 260.384,99.14 C255.672,99.14 255.548,98.396 255.548,94.18 L255.548,67.954 C255.548,67.768 255.176,67.52 254.99,67.52 C252.262,68.016 249.286,68.574 246.744,68.946 C246.496,69.07 246.558,70.496 246.744,70.558 C249.784385,71.5309231 250.618152,71.907463 250.649095,77.0103393 L250.649293,94.6262852 C250.634915,98.4491253 250.354655,99.14 245.814,99.14 C245.566,99.14 245.566,101 245.814,101 L260.384,101 Z M282.27,101.682 C292.252,101.682 299.32,94.614 299.32,84.632 C299.32,74.65 292.252,67.52 282.27,67.52 C272.35,67.52 265.344,74.65 265.344,84.632 C265.344,94.614 272.35,101.682 282.27,101.682 Z M282.27,99.822 C275.45,99.822 270.862,93.87 270.862,84.632 C270.862,75.394 275.45,69.442 282.27,69.442 C289.152,69.442 293.74,75.394 293.74,84.57 C293.74,93.808 289.152,99.822 282.27,99.822 Z M318.664,101 C318.912,101 318.912,99.14 318.664,99.14 C314.2,99.14 314.076,98.396 314.076,94.18 L314.076,75.952 C316.866,73.596 320.772,71.054 324.864,71.054 C329.452,71.054 332.366,73.534 332.366,81.47 L332.366,94.18 C332.366,98.396 332.18,99.14 327.716,99.14 C327.468,99.14 327.468,101 327.716,101 L342.038,101 C342.286,101 342.286,99.14 342.038,99.14 C337.557091,99.14 337.22143,98.4491253 337.202944,94.6262852 L337.202,80.54 C337.202,71.364 334.04,67.52 327.592,67.52 C322.26,67.52 318.044,70.558 313.952,73.72 L313.58,73.72 L313.952,68.264 C313.952,67.892 313.518,67.52 313.022,67.644 C309.713857,68.2418571 308.558,68.4297551 307.446067,68.6030117 L307.074157,68.6607638 C306.572735,68.7384898 306.033714,68.822 305.272,68.946 C305.024,69.008 305.024,70.496 305.272,70.558 C309.078041,71.628449 309.176347,72.75594 309.178032,76.5667364 L309.178,94.18 C309.178,98.396 309.054,99.14 304.342,99.14 C304.094,99.14 304.094,101 304.342,101 L318.664,101 Z M351.71,102.24 C352.082,101.434 352.082,100.318 353.756,100.318 C355.864,100.318 358.53,101.682 362.064,101.682 C367.768,101.682 374.278,99.016 374.278,91.638 C374.278,86.368 369.504,84.136 363.676,82.338 L360.142,81.222 C355.182,79.672 353.012,78.494 353.012,74.96 C353.012,71.24 355.802,69.442 359.398,69.442 C363.986,69.442 368.45,72.108 370.496,80.726 C370.558,80.85 371.798,80.726 371.798,80.54 L370.124,67.148 C370.062,66.962 369.256,66.962 369.194,67.148 C369.158231,67.2338462 369.129065,67.3238195 369.102788,67.4158248 L369.052987,67.6019235 L369.052987,67.6019235 L369.004286,67.7897155 C368.844837,68.3831391 368.602615,68.946 367.334,68.946 C365.598,68.946 362.808,67.52 359.212,67.52 C354.81,67.52 349.23,69.69 349.23,76.448 C349.23,81.904 353.694,84.26 358.406,85.748 L362.87,87.236 C368.078,88.848 370.496,90.088 370.496,93.808 C370.496,97.59 367.086,99.822 361.878,99.822 C357.476,99.822 352.268,96.474 350.16,87.732 C350.098,87.422 348.858,87.67 348.858,87.856 L350.78,102.24 C350.842,102.426 351.648,102.426 351.71,102.24 Z" id="Meditations" fill="#FFFFFF"></path>
                <path d="M17.718,48 C17.966,48 17.842,45.458 17.594,45.458 C11.704,45.458 11.146,44.59 15.052,39.63 L17.346,36.716 L35.574,36.716 C35.574,37.336 35.636,38.018 35.636,38.638 C35.9366061,45.1912121 34.8380275,45.4480937 29.5701617,45.4576446 L29.064,45.458 L29.064,45.458 C28.816,45.458 28.692,48 28.94,48 L51.57,48 C51.694,48 51.632,45.458 51.446,45.458 L51.0715176,45.4575728 C47.4838151,45.4469363 46.6659016,45.1805246 46.486,38.824 L45.122,3.422 C45.06,3.298 44.874,3.236 44.626,3.298 C41.278,3.67 38.24,4.042 34.892,4.476 C34.644,4.538 34.458,4.786 34.52,5.158 L34.706,10.676 L11.766,39.878 C7.922,44.714 5.566,45.458 1.722,45.458 C1.598,45.458 1.536,48 1.66,48 L17.718,48 Z M35.512,33.864 L19.64,33.864 L34.83,14.644 C35.078,21.03 35.326,27.478 35.512,33.864 Z M70.728,66.476 C73.89,66.476 76.556,62.88 76.556,61.702 C76.556,61.33 76.432,60.896 75.812,60.772 C72.96,59.904 68.558,58.354 68.558,54.696 C68.558,51.472 72.092,49.178 76.928,46.946 C87.282,42.11 97.512,31.384 97.512,20.038 C97.512,16.38 95.218,14.024 92.862,14.024 C89.7,14.024 86.166,17.558 86.166,18.736 C86.166,19.108 86.352,19.48 86.724,19.728 C89.266,21.278 90.196,23.324 90.196,25.99 C90.196,33.12 85.608,40.684 77.052,44.652 C76.556,44.9 76.06,45.148 75.626,45.396 C73.146,44.838 71.472,42.916 71.472,40.126 C71.472,36.468 72.836,30.392 75.502,22.58 C77.548,16.504 71.844,12.846 68.992,14.396 C65.83,15.884 62.792,18.86 59.692,22.518 C59.506,22.828 60.684,24.068 60.932,23.758 C63.536,21.03 65.148,19.728 66.14,19.418 C66.76,19.418 66.884,20.162 66.574,21.278 C64.7417612,28.5662388 63.6314792,31.0949107 63.0499936,33.429624 L62.9739596,33.7472205 C62.7191856,34.8576021 62.5828657,35.9710746 62.544,37.584 C62.482,44.032 67.69,47.318 70.79,48.248 C66.574,51.1 63.66,54.572 63.66,59.532 C63.66,63.748 67.566,66.476 70.728,66.476 Z M98.132,50.294 C99.062,50.294 100.364,49.736 101.17,49.116 C101.542,48.93 101.418,48.434 101.232,48.186 C100.922,47.628 100.612,47.07 100.612,46.636 C100.612,46.326 100.922,45.458 101.852,45.458 C106.874,45.458 112.888,49.364 116.856,49.364 C120.514,49.364 127.706,43.102 127.706,37.956 C127.706,35.538 126.156,33.988 124.668,33.988 C123.304,33.988 121.63,34.67 119.832,36.53 C119.336,37.088 119.398,37.584 119.77,37.956 C121.072,39.196 122.25,41.056 122.25,41.8 C122.25,42.668 121.568,43.226 120.886,43.226 C118.592,43.226 112.95,39.754 108.548,39.568 L134.836,15.388 C135.146,15.016 133.472,13.776 133.162,14.024 L129.318,17.496 C129.194,17.558 129.07,17.558 128.946,17.558 C126.094,17.558 119.398,14.272 115.058,14.272 C111.524,14.272 102.968,21.278 102.968,26.114 C102.968,27.974 104.146,29.71 106.316,29.71 C107.618,29.71 109.54,28.408 110.346,27.416 C110.78,26.796 111.338,26.3 110.78,25.68 C109.726,24.626 108.424,22.828 108.424,22.084 C108.424,21.402 108.982,20.782 109.726,20.782 C113.074,20.782 117.6,24.006 120.886,24.006 C121.754,24.006 122.064,23.882 122.374,23.82 L103.774,40.622 C99.992,42.358 96.892,45.892 96.892,48.062 C96.892,49.24 97.388,50.294 98.132,50.294 Z M162.426,48.558 C164.596,47.38 169.37,42.916 172.656,38.762 C172.904,38.452 171.664,37.026 171.292,37.398 C168.936,40.312 166.208,43.226 164.72,43.536 C164.1,43.536 163.728,42.854 163.976,42.048 C165.898,35.662 177.678,4.166 179.104,1.252 C179.414,0.632 179.352,0.136 178.484,0.198 C173.152,0.756 169.184,1.686 164.224,2.926 C163.79,2.988 163.79,4.972 164.224,4.91 L164.778751,4.90927575 C166.258653,4.90531322 166.977111,4.88631426 167.435138,4.88295317 L167.656046,4.88280333 C167.858129,4.88445161 168.012,4.892 168.192,4.91 C167.758,5.592 167.138,7.204 165.898,10.676 C165.34,12.164 164.72,13.776 164.162,15.388 C161.496,14.644 158.706,14.024 157.032,14.024 C150.212,14.024 133.1,31.446 133.1,42.978 C133.1,45.954 136.572,48.93 139.424,48.93 C144.074,48.93 151.142,43.35 156.66,35.29 L156.97,35.29 L156.776706,35.8712755 C155.683286,39.1682406 156.34841,37.3312308 155.172,40.684 C153.374,45.644 158.892,50.48 162.426,48.558 Z M144.818,42.544 C144.26,42.544 142.648,41.614 142.648,40.002 C142.648,30.826 149.654,17.62 154.242,17.62 C155.73,17.62 158.706,19.294 161.372,21.898 L159.76,25.866 C158.334,29.4 149.468,42.544 144.818,42.544 Z" id="Ayzd" fill="#7B62FC"></path>
            </g>
        </g>
    </g>
</svg>